<?xml version="1.0" encoding="utf-8"?>
<!-- Generator: Adobe Illustrator 16.0.0, SVG Export Plug-In . SVG Version: 6.00 Build 0)  -->
<!DOCTYPE svg PUBLIC "-//W3C//DTD SVG 1.1//EN" "http://www.w3.org/Graphics/SVG/1.1/DTD/svg11.dtd">
<svg version="1.1" id="Layer_1" xmlns="http://www.w3.org/2000/svg" xmlns:xlink="http://www.w3.org/1999/xlink" x="0px" y="0px"
	 width="636.453px" height="78.25px" viewBox="0 0 636.453 78.25" enable-background="new 0 0 636.453 78.25" xml:space="preserve">
<path fill="#1D5AA7" d="M2.287,7.555c0-3.699,2.937-6.743,6.743-6.743h1.414c3.263,0,5.111,1.63,6.961,3.916l38.065,49.268V7.228
	c0-3.588,2.936-6.525,6.528-6.525c3.696,0,6.633,2.937,6.633,6.525v63.95c0,3.699-2.828,6.637-6.526,6.637h-0.544
	c-3.154,0-5.11-1.633-6.959-4.021L15.447,23.107v48.291c0,3.59-2.936,6.523-6.525,6.523c-3.698,0-6.635-2.934-6.635-6.523V7.555z"/>
<path fill="#1D5AA7" d="M88.201,70.638V7.989c0-3.805,2.937-6.742,6.744-6.742h44.266c3.264,0,5.981,2.719,5.981,5.98
	c0,3.371-2.718,5.983-5.981,5.983h-37.631v19.793h32.736c3.264,0,5.982,2.719,5.982,6.091c0,3.265-2.719,5.873-5.982,5.873h-32.736
	v20.447h38.173c3.265,0,5.981,2.722,5.981,5.984c0,3.369-2.717,5.979-5.981,5.979H94.945C91.137,77.376,88.201,74.445,88.201,70.638
	z"/>
<path fill="#1D5AA7" d="M156.389,9.838c-0.328-0.76-0.544-1.741-0.544-2.61c0-3.697,3.152-6.525,6.851-6.525
	c3.264,0,5.764,2.067,6.635,4.895l17.511,52.312l17.184-52.096c1.089-3.153,3.372-5.327,6.743-5.327h0.979
	c3.372,0,5.765,2.174,6.744,5.327l17.183,52.096l17.513-52.42c0.979-2.719,3.263-4.786,6.524-4.786c3.588,0,6.636,2.828,6.636,6.417
	c0,0.869-0.326,1.958-0.653,2.718l-22.515,63.085c-1.195,3.365-3.697,5.543-6.96,5.543h-1.305c-3.264,0-5.656-2.064-6.852-5.543
	l-16.968-49.708l-16.967,49.708c-1.195,3.479-3.698,5.543-6.96,5.543h-1.306c-3.264,0-5.656-2.064-6.961-5.543L156.389,9.838z"/>
<path fill="#1D5AA7" d="M277.213,68.896c-1.523-1.088-2.612-2.938-2.612-5.111c0-3.482,2.828-6.2,6.31-6.2
	c1.848,0,3.046,0.545,3.915,1.197c6.308,5.003,13.052,7.833,21.317,7.833s13.483-3.919,13.483-9.574V56.82
	c0-5.435-3.043-8.373-17.182-11.635c-16.206-3.916-25.341-8.7-25.341-22.731v-0.216c0-13.053,10.876-22.08,25.992-22.08
	c9.572,0,17.295,2.502,24.147,7.069c1.521,0.869,2.934,2.72,2.934,5.329c0,3.483-2.825,6.2-6.306,6.2
	c-1.308,0-2.394-0.328-3.48-0.98c-5.874-3.806-11.529-5.765-17.512-5.765c-7.831,0-12.398,4.027-12.398,9.028v0.217
	c0,5.874,3.479,8.485,18.162,11.966c16.099,3.913,24.364,9.676,24.364,22.297v0.216c0,14.244-11.203,22.73-27.19,22.73
	C295.483,78.466,285.697,75.205,277.213,68.896z"/>
<path fill="#1D5AA7" d="M345.836,5.161c-0.219-0.543-0.326-0.978-0.326-1.415c0-1.521,1.412-2.935,2.933-2.935
	c1.526,0,2.614,1.305,3.046,2.609l23.167,65.583l21.644-66.018c0.437-1.196,1.197-2.174,2.72-2.174h0.216
	c1.413,0,2.283,0.979,2.723,2.174l21.641,66.018l23.275-65.91c0.544-1.414,1.412-2.282,2.72-2.282c1.412,0,2.827,1.414,2.827,2.828
	c0,0.435-0.216,0.979-0.437,1.521L426.537,75.75c-0.544,1.412-1.413,2.5-2.938,2.5h-0.218c-1.523,0-2.502-1.088-2.936-2.5
	l-21.536-63.953L377.375,75.75c-0.437,1.412-1.415,2.5-2.938,2.5h-0.219c-1.521,0-2.389-0.98-2.934-2.5L345.836,5.161z"/>
<path fill="#1D5AA7" d="M470.896,3.64c0-1.523,1.307-2.828,2.827-2.828c1.525,0,2.828,1.305,2.828,2.828v71.348
	c0,1.521-1.303,2.826-2.828,2.826c-1.521,0-2.827-1.305-2.827-2.826V3.64z"/>
<g>
	<path fill="#1D5AA7" d="M578.559,74.611V5.574c0-1.493,1.308-2.769,2.828-2.769h49.158c1.415,0,2.609,1.17,2.609,2.553
		c0,1.387-1.194,2.561-2.609,2.561h-46.331v29.297h41.436c1.418,0,2.612,1.171,2.612,2.557c0,1.384-1.194,2.558-2.612,2.558h-41.436
		v29.935h46.876c1.415,0,2.609,1.168,2.609,2.557c0,1.383-1.194,2.555-2.609,2.555h-49.703
		C579.867,77.376,578.559,76.101,578.559,74.611z"/>
</g>
<g>
	<path fill="#1D5AA7" d="M508.348,1.757h19.76c7.819,0,14.234,3.669,19.255,11.003c1.59,2.801,2.384,5.731,2.384,8.791v0.831
		c0,6.818-3.784,12.402-11.35,16.753l-3.701,1.716c14.801,22.483,22.203,33.838,22.203,34.059v1.051
		c0,1.289-1.025,2.078-3.073,2.379h-0.128c-1.587,0-3.492-2.139-5.707-6.416l-20.01-30.026h-15.935V75.96
		c0,1.289-1.022,2.078-3.07,2.379h-0.125c-1.548,0-2.531-0.982-2.948-2.934V5.074C506.153,2.862,506.967,1.757,508.348,1.757z
		 M512.046,6.954v29.581H527.1c8.282,0,13.72-3.924,16.312-11.777l0.248-1.879v-1.771c0-5.825-3.659-10.229-10.973-13.213
		c-2.092-0.627-5.204-0.941-9.347-0.941H512.046z"/>
</g>
</svg>
